<svg width="22" height="20" xmlns="http://www.w3.org/2000/svg" xmlns:xlink="http://www.w3.org/1999/xlink" viewBox="0.363 0 21.274 20" fill="#292929"><svg xmlns="http://www.w3.org/2000/svg" width="22" height="20" viewBox="0.316 0.147 20.953 19.698"><path paint-order="stroke fill markers" fill-rule="evenodd" d="M21.221 15.59c-.213.497-1.114.862-2.756 1.117-.085.114-.155.601-.266.98-.067.228-.23.364-.497.364h-.012c-.384 0-.786-.178-1.59-.178-1.085 0-1.46.248-2.302.843-.894.632-1.75 1.177-3.03 1.121-1.295.096-2.374-.692-2.982-1.121-.847-.6-1.22-.842-2.301-.842-.772 0-1.258.193-1.59.193-.33 0-.46-.202-.509-.37-.11-.376-.18-.87-.267-.988-.846-.131-2.754-.464-2.803-1.315a.435.435 0 0 1 .364-.453c2.847-.47 4.13-3.393 4.183-3.517a.358.358 0 0 1 .01-.021c.152-.309.186-.567.1-.768-.206-.487-1.1-.661-1.475-.81-.97-.383-1.105-.823-1.048-1.125.1-.526.889-.849 1.35-.633.366.171.69.258.964.258.206 0 .336-.05.408-.089-.084-1.47-.29-3.572.232-4.746C6.787.392 9.716.15 10.58.15l.414-.003c2.134 0 4.185 1.096 5.186 3.341.523 1.173.317 3.266.233 4.748.065.035.179.08.352.087.262-.011.565-.097.903-.256.25-.116.59-.1.838.003h.001c.388.139.632.418.639.731.007.4-.35.744-1.06 1.024-.086.034-.192.068-.304.104-.4.127-1.006.319-1.17.706-.086.201-.052.46.1.768a.298.298 0 0 1 .01.02c.053.125 1.334 3.048 4.183 3.517.263.044.457.323.316.65z"/></svg></svg>