<svg width="18" height="24" xmlns="http://www.w3.org/2000/svg" xmlns:xlink="http://www.w3.org/1999/xlink" viewBox="0 0.302 18 23.396" fill="#292929"><svg xmlns="http://www.w3.org/2000/svg" width="18" height="24" viewBox="0.706 0.854 17.167 22.313"><path paint-order="stroke fill markers" fill-rule="evenodd" d="M9.826.854C5.239.854.706 3.912.706 8.86c0 3.148 1.77 4.936 2.843 4.936.442 0 .697-1.234.697-1.583 0-.415-1.06-1.3-1.06-3.03 0-3.595 2.737-6.143 6.277-6.143 3.045 0 5.298 1.73 5.298 4.908 0 2.374-.952 6.827-4.037 6.827-1.113 0-2.065-.805-2.065-1.958 0-1.69 1.18-3.326 1.18-5.07 0-2.96-4.198-2.423-4.198 1.154 0 .75.094 1.582.43 2.266-.618 2.656-1.878 6.612-1.878 9.348 0 .845.12 1.677.2 2.522.153.17.077.152.31.067 2.253-3.085 2.172-3.688 3.191-7.725.55 1.046 1.972 1.609 3.098 1.609 4.748 0 6.88-4.627 6.88-8.798 0-4.44-3.835-7.336-8.046-7.336z"/></svg></svg>