<svg width="21" height="21" xmlns="http://www.w3.org/2000/svg" xmlns:xlink="http://www.w3.org/1999/xlink" viewBox="0 0.002 21 20.995" fill="#292929"><svg xmlns="http://www.w3.org/2000/svg" width="21" height="21" viewBox="0.388 0.496 20.435 20.431"><path paint-order="stroke fill markers" fill-rule="evenodd" d="M20.751 6.499c-.077-1.637-.451-3.087-1.65-4.281-1.194-1.195-2.644-1.569-4.28-1.65-1.687-.096-6.743-.096-8.43 0-1.632.077-3.082.45-4.28 1.645C.91 3.408.54 4.857.46 6.493c-.096 1.688-.096 6.743 0 8.43.077 1.637.451 3.087 1.65 4.281 1.2 1.195 2.644 1.568 4.28 1.65 1.688.096 6.744.096 8.43 0 1.637-.077 3.087-.45 4.281-1.65 1.195-1.194 1.568-2.644 1.65-4.28.096-1.688.096-6.739 0-8.425zm-2.179 10.234a3.447 3.447 0 0 1-1.942 1.942c-1.345.534-4.536.41-6.022.41-1.486 0-4.682.12-6.022-.41a3.447 3.447 0 0 1-1.942-1.942c-.534-1.345-.41-4.536-.41-6.022 0-1.486-.12-4.682.41-6.022a3.448 3.448 0 0 1 1.942-1.943c1.344-.533 4.536-.41 6.022-.41 1.486 0 4.682-.118 6.022.41a3.448 3.448 0 0 1 1.942 1.943c.534 1.344.41 4.536.41 6.022 0 1.486.124 4.682-.41 6.022zm-1.29-11.475c0 .68-.547 1.222-1.222 1.222a1.222 1.222 0 1 1 1.222-1.222zm-6.674.215A5.23 5.23 0 0 0 5.37 10.71a5.23 5.23 0 0 0 5.238 5.238 5.23 5.23 0 0 0 5.238-5.238 5.23 5.23 0 0 0-5.238-5.238zm0 8.643a3.412 3.412 0 0 1-3.406-3.405 3.409 3.409 0 0 1 3.406-3.406 3.409 3.409 0 0 1 3.405 3.406 3.412 3.412 0 0 1-3.405 3.405z"/></svg></svg>