<svg width="21" height="17" xmlns="http://www.w3.org/2000/svg" xmlns:xlink="http://www.w3.org/1999/xlink" viewBox="0.034 0 20.931 17" fill="#000"><svg xmlns="http://www.w3.org/2000/svg" width="21" height="17" viewBox="0.832 0.81 19.426 15.777"><path paint-order="stroke fill markers" fill-rule="evenodd" d="M18.26 4.742c.013.173.013.346.013.518 0 5.263-4.006 11.328-11.328 11.328A11.25 11.25 0 0 1 .832 14.8c.32.037.628.05.96.05a7.973 7.973 0 0 0 4.944-1.701 3.988 3.988 0 0 1-3.723-2.761c.247.037.493.061.752.061.358 0 .715-.049 1.048-.135A3.982 3.982 0 0 1 1.62 6.406v-.049a4.01 4.01 0 0 0 1.8.506 3.979 3.979 0 0 1-1.775-3.316c0-.74.197-1.418.542-2.01a11.317 11.317 0 0 0 8.21 4.167 4.49 4.49 0 0 1-.1-.912A3.98 3.98 0 0 1 14.28.81c1.146 0 2.182.481 2.91 1.258a7.842 7.842 0 0 0 2.526-.962 3.97 3.97 0 0 1-1.75 2.194 7.981 7.981 0 0 0 2.292-.616 8.56 8.56 0 0 1-1.996 2.058z"/></svg></svg>