<svg xmlns="http://www.w3.org/2000/svg" version="1.0" width="349.000000pt" height="154.000000pt" viewBox="0 0 349.000000 154.000000" preserveAspectRatio="xMidYMid meet">

<g transform="translate(0.000000,154.000000) scale(0.100000,-0.100000)" fill="#000000" stroke="none">
<path d="M140 771 l0 -648 645 1 645 1 0 648 0 647 -645 0 -645 0 0 -649z m1250 -1 l0 -610 -605 0 -605 0 0 610 0 610 605 0 605 0 0 -610z"/>
<path d="M697 1183 c-5 -8 -19 -76 -22 -105 -4 -30 -5 -31 -18 -19 -8 6 -17 8 -20 5 -4 -4 -18 1 -32 10 -22 15 -25 15 -25 1 0 -9 -4 -13 -10 -10 -6 3 -7 -1 -4 -9 5 -12 -1 -16 -21 -16 -20 0 -26 -4 -22 -14 4 -10 1 -13 -9 -9 -9 3 -14 -1 -14 -12 0 -13 -6 -15 -30 -10 -35 8 -38 -3 -10 -35 29 -34 25 -50 -12 -50 -23 0 -29 -3 -19 -9 7 -5 10 -14 7 -20 -4 -6 -1 -11 6 -11 8 0 5 -7 -8 -18 -25 -20 -37 -49 -24 -57 16 -10 12 -19 -11 -30 -36 -17 -23 -30 41 -39 33 -5 60 -12 60 -15 0 -4 -18 -25 -40 -46 -27 -27 -40 -48 -40 -66 0 -30 -15 -47 -23 -27 -4 8 -6 7 -6 -4 -1 -20 35 -48 64 -48 20 -1 20 -1 1 -15 -11 -8 -34 -15 -50 -15 l-31 -1 26 -14 c15 -8 29 -21 32 -30 7 -17 37 -9 37 10 0 22 36 60 44 47 4 -7 3 -12 -1 -12 -11 0 -11 -41 0 -57 5 -7 19 -13 33 -13 18 0 24 -5 24 -21 0 -14 5 -19 15 -16 8 4 17 1 21 -5 6 -10 52 -6 87 7 12 5 17 3 15 -5 -2 -7 2 -14 9 -17 7 -3 10 3 6 15 -3 12 1 22 11 25 10 4 13 1 9 -9 -3 -7 0 -14 6 -14 6 0 11 -7 11 -15 0 -18 41 -20 59 -3 11 11 14 11 18 1 8 -23 33 -14 33 11 0 14 5 28 10 31 6 4 8 11 5 16 -4 5 -1 9 6 9 7 0 10 3 6 6 -3 3 2 14 11 25 15 18 17 18 35 1 11 -9 31 -17 46 -17 15 0 25 -5 23 -13 -6 -30 31 -8 47 28 17 39 18 39 29 17 6 -12 13 -33 15 -47 l3 -25 11 26 c7 15 19 29 28 33 22 8 11 23 -31 41 -21 9 -34 21 -34 32 0 11 3 14 8 7 4 -6 20 -11 37 -10 25 1 31 6 35 31 4 21 11 29 22 27 26 -4 30 13 8 33 -24 22 -26 37 -3 28 14 -5 15 -1 10 28 -3 19 -9 42 -13 53 -6 17 -5 17 17 6 13 -7 32 -22 42 -34 l19 -21 -6 28 c-4 15 -1 37 5 48 10 20 9 21 -39 14 -35 -5 -52 -3 -57 6 -5 8 -4 10 3 5 7 -4 22 2 34 13 19 18 20 24 9 47 -9 20 -9 30 0 40 15 18 8 26 -28 30 -38 5 -92 22 -73 23 24 2 -10 21 -37 21 -25 0 -29 10 -11 28 9 9 8 12 -6 12 -9 0 -14 4 -11 10 3 6 -1 7 -9 4 -12 -4 -16 0 -16 16 0 23 -21 50 -40 50 -8 0 -9 10 -5 30 4 20 3 30 -5 30 -11 0 -24 -10 -81 -62 -18 -17 -19 -17 -21 5 0 12 0 30 1 41 1 16 -1 17 -14 6 -8 -7 -15 -9 -15 -5 0 4 -6 3 -13 -3 -10 -8 -16 -6 -25 9 -13 21 -42 25 -59 8 -7 -7 -14 -2 -21 20 -11 31 -17 37 -25 24z m-37 -154 c0 -6 -4 -7 -10 -4 -5 3 -10 11 -10 16 0 6 5 7 10 4 6 -3 10 -11 10 -16z m218 -29 c84 -52 98 -178 27 -244 l-26 -24 56 -113 c37 -76 52 -116 45 -123 -14 -14 -16 -10 -74 109 l-52 107 -56 1 -56 2 -56 -112 c-52 -106 -64 -122 -78 -107 -3 3 19 57 49 121 l54 116 -25 26 c-51 53 -59 122 -23 185 41 72 144 99 215 56z"/>
<path d="M743 981 c-75 -35 -98 -130 -46 -191 l27 -32 37 73 37 74 34 -72 c18 -40 38 -71 43 -70 6 2 20 24 33 49 20 40 22 52 13 85 -12 44 -42 76 -84 92 -38 14 -45 14 -94 -8z"/>
<path d="M777 785 c-9 -20 -17 -38 -17 -40 0 -3 16 -5 35 -5 19 0 35 5 35 10 0 11 -28 70 -33 70 -2 0 -11 -16 -20 -35z"/>
<path d="M1898 1384 c-12 -11 -10 -254 2 -254 6 0 10 26 10 58 0 58 8 74 47 96 25 14 43 -24 43 -90 0 -36 4 -64 10 -64 6 0 10 32 10 75 0 69 -2 76 -25 91 -21 14 -31 15 -51 5 -14 -6 -27 -11 -29 -11 -2 0 -5 23 -7 51 -2 28 -6 47 -10 43z"/>
<path d="M1682 1358 c3 -7 21 -14 41 -16 l37 -3 0 -105 c0 -63 4 -104 10 -104 6 0 10 41 10 104 l0 105 35 3 c68 6 35 23 -51 26 -67 2 -85 0 -82 -10z"/>
<path d="M2123 1300 c-29 -12 -43 -40 -43 -89 0 -52 27 -81 74 -81 19 0 41 3 50 6 31 12 15 22 -31 21 -41 -2 -49 1 -60 23 l-12 25 59 3 c58 3 60 4 60 31 0 51 -48 81 -97 61z m75 -54 c3 -13 -5 -16 -42 -16 -52 0 -61 18 -24 44 19 13 25 14 43 2 11 -7 21 -21 23 -30z"/>
<path d="M2157 923 c-11 -11 -8 -253 3 -253 6 0 10 50 10 130 0 72 -1 130 -3 130 -2 0 -7 -3 -10 -7z"/>
<path d="M1749 895 c-58 -31 -67 -157 -15 -202 40 -34 99 -32 137 6 26 26 29 36 29 91 0 55 -3 65 -29 91 -33 33 -78 38 -122 14z m105 -35 c15 -14 20 -33 20 -71 0 -44 -4 -55 -28 -75 -35 -31 -61 -30 -91 1 -20 19 -25 34 -25 75 0 90 66 127 124 70z"/>
<path d="M2455 893 c-23 -59 -75 -207 -75 -214 0 -22 21 -6 34 26 14 33 18 35 60 35 43 0 47 -2 60 -35 8 -19 20 -35 25 -35 16 0 15 5 -30 128 -40 108 -59 133 -74 95z m52 -129 c-3 -3 -21 -4 -40 -2 l-35 3 21 55 20 54 20 -52 c11 -29 17 -55 14 -58z"/>
<path d="M2738 868 c-2 -19 -9 -23 -38 -23 -19 0 -41 -4 -49 -9 -10 -6 -16 -6 -19 2 -2 7 -8 10 -13 6 -12 -7 -12 -174 1 -174 6 0 10 26 10 58 0 76 22 98 92 93 14 -1 18 -14 20 -73 l3 -73 33 -3 c36 -4 45 15 10 20 -21 3 -23 9 -26 66 -3 61 -2 62 23 62 14 0 25 5 25 10 0 6 -11 10 -25 10 -20 0 -25 5 -25 25 0 31 -17 33 -22 3z"/>
<path d="M1967 843 c-11 -11 -8 -173 3 -173 6 0 10 26 10 58 0 58 8 74 47 96 25 14 43 -24 43 -90 0 -36 4 -64 10 -64 6 0 10 32 10 75 0 69 -2 76 -25 91 -21 14 -30 15 -52 5 -18 -8 -28 -9 -33 -1 -3 6 -9 7 -13 3z"/>
<path d="M2210 838 c0 -7 13 -48 30 -91 25 -65 28 -81 18 -102 -12 -26 -4 -45 11 -29 8 8 73 174 83 211 2 6 -1 12 -7 14 -5 1 -22 -28 -36 -65 -15 -38 -29 -65 -31 -60 -3 5 -13 32 -22 61 -17 52 -46 90 -46 61z"/>
<path d="M2570 425 c0 -43 -1 -44 -25 -35 -31 12 -70 -2 -84 -29 -16 -29 -13 -93 5 -119 17 -25 71 -31 92 -10 9 9 12 9 12 0 0 -7 5 -12 10 -12 6 0 10 48 10 125 0 77 -4 125 -10 125 -5 0 -10 -20 -10 -45z m-19 -65 c40 -22 15 -120 -31 -120 -36 0 -58 57 -40 101 13 31 36 37 71 19z"/>
<path d="M1717 453 c-4 -3 -7 -57 -7 -120 0 -94 3 -113 15 -113 12 0 15 13 15 55 l0 55 45 0 c25 0 45 5 45 10 0 6 -20 10 -45 10 l-45 0 0 40 0 40 45 0 c33 0 45 4 45 15 0 11 -13 15 -53 15 -30 0 -57 -3 -60 -7z"/>
<path d="M2960 445 c0 -9 5 -15 11 -13 6 2 11 8 11 13 0 5 -5 11 -11 13 -6 2 -11 -4 -11 -13z"/>
<path d="M2840 420 c0 -11 -7 -23 -15 -26 -19 -8 -20 -24 0 -24 11 0 15 -17 17 -72 l3 -73 33 -3 c36 -4 45 15 10 20 -21 3 -23 9 -26 66 -3 61 -2 62 23 62 14 0 25 5 25 10 0 6 -11 10 -25 10 -20 0 -25 5 -25 25 0 14 -4 25 -10 25 -5 0 -10 -9 -10 -20z"/>
<path d="M1913 390 c-29 -12 -43 -40 -43 -89 0 -50 27 -81 71 -81 45 0 67 16 78 55 14 53 -2 101 -41 114 -36 13 -36 13 -65 1z m77 -39 c37 -70 -40 -152 -84 -89 -33 46 -7 108 44 108 19 0 33 -7 40 -19z"/>
<path d="M2080 326 c0 -54 4 -79 16 -90 18 -19 65 -21 82 -4 9 9 12 9 12 0 0 -7 5 -12 10 -12 6 0 10 37 10 91 0 57 -4 88 -10 84 -5 -3 -10 -32 -10 -64 0 -43 -5 -62 -18 -74 -45 -41 -72 -10 -72 82 0 34 -4 61 -10 61 -6 0 -10 -31 -10 -74z"/>
<path d="M2277 393 c-11 -11 -8 -173 3 -173 6 0 10 26 10 58 0 58 8 74 47 96 25 14 43 -24 43 -90 0 -36 4 -64 10 -64 6 0 10 32 10 75 0 69 -2 76 -25 91 -21 14 -30 15 -52 5 -18 -8 -28 -9 -33 -1 -3 6 -9 7 -13 3z"/>
<path d="M2678 393 c-10 -2 -18 -11 -18 -18 0 -10 7 -12 28 -5 35 9 62 -4 62 -30 0 -16 -7 -20 -34 -20 -40 0 -66 -22 -66 -54 0 -34 19 -45 79 -44 l53 1 -4 73 c-2 41 -8 78 -13 83 -13 13 -64 21 -87 14z m72 -111 c0 -38 -46 -56 -70 -27 -18 21 4 45 41 45 21 0 29 -5 29 -18z"/>
<path d="M2967 393 c-11 -11 -8 -173 3 -173 6 0 10 37 10 90 0 90 -1 96 -13 83z"/>
<path d="M3073 390 c-29 -12 -43 -40 -43 -89 0 -50 27 -81 71 -81 45 0 67 16 78 55 14 53 -2 101 -41 114 -36 13 -36 13 -65 1z m77 -39 c24 -47 -2 -111 -45 -111 -27 0 -55 33 -55 65 0 56 76 90 100 46z"/>
<path d="M3237 393 c-11 -11 -8 -173 3 -173 6 0 10 26 10 58 0 58 8 74 47 96 25 14 43 -24 43 -90 0 -36 4 -64 10 -64 6 0 10 32 10 75 0 69 -2 76 -25 91 -21 14 -30 15 -52 5 -18 -8 -28 -9 -33 -1 -3 6 -9 7 -13 3z"/>
</g>
</svg>