<svg xmlns="http://www.w3.org/2000/svg" version="1.0" viewBox="0 0 1250 251.17" preserveAspectRatio="xMidYMid meet">

<g transform="translate(0.000000,600.000000) scale(0.19,-0.19)" fill="#000000" stroke="none">
<path fill="#EB2026" d="M1205 3003 c-68 -23 -155 -110 -178 -177 -37 -108 -14 -215 64 -300 27 -30 49 -56 49 -59 0 -3 -45 -98 -100 -213 -56 -114 -98 -214 -96 -221 3 -7 14 -13 24 -13 14 0 42 50 122 215 101 209 104 214 129 208 33 -9 128 -9 162 0 25 6 29 1 133 -213 98 -202 109 -219 127 -210 10 6 19 16 19 22 0 6 -46 105 -102 220 l-102 209 47 47 c178 181 64 483 -188 498 -39 3 -77 -2 -110 -13z m160 -44 c56 -14 131 -79 156 -134 23 -50 25 -142 3 -193 -16 -40 -71 -102 -88 -101 -6 0 -38 56 -70 125 -33 68 -63 124 -66 124 -4 0 -33 -56 -66 -125 -32 -69 -63 -125 -69 -125 -19 0 -63 52 -84 100 -42 93 -23 189 53 265 69 69 136 88 231 64z m12 -465 c-11 -11 -105 -15 -130 -5 l-27 11 41 82 42 83 39 -83 c22 -46 38 -86 35 -88z"/>
<path d="M2930 2546 c0 -270 0 -276 20 -276 20 0 20 5 18 272 -3 251 -4 273 -20 276 -17 3 -18 -15 -18 -272z"/>
<path d="M3575 2760 c-5 -8 -145 -324 -212 -477 -4 -10 10 -13 50 -13 51 0 55 2 67 30 l12 30 102 0 102 0 11 -30 c11 -28 15 -30 63 -30 62 0 69 -27 -61 270 -91 209 -116 250 -134 220z m49 -259 c14 -36 26 -68 26 -73 0 -4 -27 -8 -60 -8 l-60 0 21 53 c12 28 25 63 30 76 12 29 11 30 43 -48z"/>
<path d="M2071 2746 c-48 -17 -108 -71 -132 -118 -64 -125 -15 -277 110 -340 209 -106 436 115 337 328 -27 59 -90 116 -145 132 -49 15 -126 14 -170 -2z m190 -46 c45 -23 95 -93 105 -147 15 -81 -24 -176 -93 -223 -41 -28 -132 -38 -185 -21 -40 13 -92 61 -115 105 -8 16 -17 54 -20 85 -4 47 0 64 24 110 57 111 172 148 284 91z"/>
<path d="M4190 2686 c0 -41 -2 -45 -27 -48 -25 -3 -28 -7 -28 -43 0 -36 3 -40 28 -43 l27 -3 0 -92 c0 -109 17 -153 70 -179 35 -18 104 -24 134 -12 11 4 16 19 16 45 l0 39 -43 0 c-65 0 -77 19 -77 118 l0 82 50 0 50 0 0 45 0 45 -50 0 -50 0 0 45 0 45 -50 0 -50 0 0 -44z"/>
<path d="M3890 2455 l0 -185 45 0 45 0 0 84 c0 143 17 181 90 192 40 7 40 7 40 52 l0 45 -45 -6 c-25 -2 -54 -12 -64 -21 -17 -16 -19 -16 -24 4 -4 16 -13 20 -46 20 l-41 0 0 -185z"/>
<path d="M2592 2610 c-39 -24 -42 -24 -42 -5 0 8 -7 15 -15 15 -13 0 -15 -26 -15 -175 0 -149 2 -175 15 -175 12 0 15 19 15 115 0 140 13 179 66 201 45 19 84 11 115 -22 22 -24 24 -35 27 -160 3 -127 5 -134 24 -134 19 0 20 5 16 138 -3 114 -6 142 -22 165 -39 57 -123 74 -184 37z"/>
<path d="M3060 2618 c0 -2 33 -79 74 -173 73 -167 74 -170 60 -205 -20 -50 -58 -80 -100 -80 -24 0 -34 -5 -34 -15 0 -11 12 -15 48 -15 51 0 81 18 102 59 21 41 180 415 180 423 0 4 -8 8 -17 8 -14 0 -33 -37 -78 -145 -33 -80 -63 -145 -66 -145 -3 0 -33 64 -67 143 -47 112 -65 143 -81 145 -12 2 -21 2 -21 0z"/>
</g>
</svg>