<!-- <svg version="1.1" id="Layer_1_xA0_Image_1_" xmlns="http://www.w3.org/2000/svg" xmlns:xlink="http://www.w3.org/1999/xlink"
	 x="0px" y="0px" width="420.231px" height="171.053px" viewBox="0 0 420.231 171.053" enable-background="new 0 0 420.231 171.053"
	 xml:space="preserve"> -->
<svg version="1.1" id="Layer_1_xA0_Image_1_" xmlns="http://www.w3.org/2000/svg" xmlns:xlink="http://www.w3.org/1999/xlink"
x="0px" y="0px" width="80px" height="80px" viewBox="0 0 170 170" enable-background="new 0 0 170 170"
xml:space="preserve">
<g>
	<linearGradient id="SVGID_1_" gradientUnits="userSpaceOnUse" x1="6.5771" y1="85.1787" x2="167.8857" y2="85.1787">
		<stop  offset="0" style="stop-color:#EC008C"/>
		<stop  offset="0.2078" style="stop-color:#C40B87"/>
		<stop  offset="0.4489" style="stop-color:#9C1582"/>
		<stop  offset="0.6697" style="stop-color:#7F1D7F"/>
		<stop  offset="0.8606" style="stop-color:#6D217D"/>
		<stop  offset="1" style="stop-color:#67237C"/>
	</linearGradient>
	<path fill-rule="evenodd" clip-rule="evenodd" fill="url(#SVGID_1_)" d="M167.812,165.807c-5.621,0-11.058,0-16.495,0
		c-47.712,0-95.424,0-143.136,0c-1.6,0-1.604,0-1.604-1.658c0-52.635-0.001-105.27,0-157.905c0-1.664,0.003-1.668,1.719-1.668
		C60.93,4.567,113.564,4.559,166.199,4.551c1.684,0,1.687,0.004,1.687,1.694c0,52.635,0,105.27-0.002,157.905
		C167.883,164.658,167.84,165.168,167.812,165.807z M87.291,9.522c-24.624,0-49.247,0.001-73.871-0.001
		c-1.973,0-1.975-0.007-1.975,1.973c0,49.073,0,98.147,0,147.219c0,0.279,0.014,0.561,0,0.84c-0.045,0.889,0.312,1.369,1.261,1.303
		c0.358-0.025,0.72-0.002,1.08-0.002c43.189-0.006,86.378-0.012,129.567-0.018c6.039-0.002,12.078-0.027,18.117,0.004
		c1.071,0.006,1.519-0.297,1.451-1.43c-0.087-1.436-0.021-2.879-0.021-4.318c0-47.914,0-95.827,0-143.74
		c0-1.83-0.006-1.831-1.833-1.831C136.474,9.521,111.882,9.521,87.291,9.522z"/>
	<!-- <path fill-rule="evenodd" clip-rule="evenodd" fill="#733194" d="M212.068,87.02c-0.063,4.893-1.283,9.379-5.092,12.713
		c-7.389,6.471-21.828,4.791-24.82-8.207c-0.938-4.074-0.645-8.114,0.888-12.001c2.333-5.916,8.084-9.313,14.428-9.034
		C206.297,70.877,212.184,77.488,212.068,87.02z M208.034,86.957c-0.324-1.795-0.481-3.642-1.005-5.377
		c-1.433-4.739-5.377-7.591-10.179-7.557c-4.846,0.034-8.89,2.932-10.164,7.415c-0.939,3.31-1.162,6.699-0.3,10.054
		c1.076,4.186,3.636,7.137,7.933,8.102c4.462,1.004,8.325-0.225,11.132-3.988C207.343,93.068,207.835,90.088,208.034,86.957z"/>
	<path fill-rule="evenodd" clip-rule="evenodd" fill="#733194" d="M278.367,102.791c0.732-1.949,1.382-3.697,2.048-5.438
		c3.189-8.342,6.401-16.676,9.553-25.034c0.371-0.983,0.842-1.316,1.895-1.293c3.128,0.071,3.144,0.016,4.352,2.967
		c3.746,9.152,7.48,18.309,11.216,27.465c0.145,0.357,0.257,0.727,0.455,1.293c-1.528,0-2.875,0.055-4.211-0.043
		c-0.281-0.021-0.623-0.561-0.766-0.926c-1.004-2.563-1.989-5.131-2.917-7.721c-0.261-0.729-0.642-0.977-1.396-0.971
		c-3.798,0.031-7.596,0.041-11.394-0.006c-0.846-0.012-1.195,0.332-1.45,1.066c-0.886,2.563-1.844,5.1-2.723,7.664
		c-0.247,0.719-0.615,1.027-1.384,0.986C280.619,102.752,279.587,102.791,278.367,102.791z M287.41,89.725c3.631,0,7.183,0,10.848,0
		c-1.888-5.092-3.729-10.055-5.55-14.966C290.937,79.759,289.187,84.704,287.41,89.725z"/>
	<path fill-rule="evenodd" clip-rule="evenodd" fill="#733194" d="M305.901,126.156c0-3.781,0-7.363,0-11.063
		c1.274,0,2.443,0,3.724,0c0.02,0.377,0.057,0.762,0.057,1.146c0.003,9.717-0.016,19.434,0.028,29.148
		c0.005,1.082-0.331,1.457-1.354,1.328c-0.236-0.031-0.483-0.033-0.718,0c-1.137,0.162-1.646-0.271-1.48-1.451
		c0.046-0.33-0.04-0.68-0.065-1.02c-0.174,0.01-0.283-0.018-0.321,0.021c-4.479,4.781-11.877,3.508-14.665-2.621
		c-1.972-4.336-1.821-8.785,0.019-13.135c2.409-5.695,10.437-7.137,14.249-2.668C305.444,125.928,305.569,125.963,305.901,126.156z
		 M306.491,135.297c-0.395-1.707-0.604-3.594-1.282-5.295c-0.906-2.271-2.748-3.592-5.288-3.633
		c-2.45-0.039-4.277,1.168-5.224,3.338c-1.548,3.553-1.595,7.258-0.006,10.795c1.067,2.377,3.039,3.783,5.824,3.557
		c2.5-0.205,4.141-1.668,4.953-3.916C306,138.672,306.135,137.061,306.491,135.297z"/>
	<path fill-rule="evenodd" clip-rule="evenodd" fill="#733194" d="M337.068,146.684c-0.914,0-1.979,0.055-3.033-0.037
		c-0.274-0.023-0.601-0.461-0.743-0.779c-0.239-0.537-0.35-1.133-0.556-1.844c-0.706,0.482-1.338,0.934-1.99,1.355
		c-3.043,1.963-6.356,2.285-9.77,1.369c-2.485-0.666-4.061-2.385-4.423-4.971c-0.395-2.816,0.563-5.1,3.051-6.641
		c1.897-1.172,4.057-1.332,6.183-1.654c1.929-0.293,3.846-0.666,5.767-1.01c0.781-0.141,1.087-0.553,1.073-1.406
		c-0.045-2.754-1.497-4.404-4.279-4.623c-0.99-0.08-1.998-0.082-2.987,0.004c-1.899,0.17-3.298,1.109-4.04,2.916
		c-0.18,0.438-0.344,0.883-0.546,1.402c-1.163-0.172-2.294-0.34-3.59-0.531c0.444-2.338,1.375-4.211,3.409-5.408
		c2.359-1.389,4.973-1.645,7.626-1.586c1.068,0.023,2.149,0.195,3.193,0.438c3.175,0.732,4.851,2.789,4.902,6.051
		c0.059,3.715-0.026,7.434,0.089,11.146C336.462,142.764,336.824,144.641,337.068,146.684z M332.426,135.25
		c-1.151,0.277-2.222,0.564-3.304,0.787c-1.988,0.412-4.008,0.693-5.971,1.201c-1.718,0.445-2.681,1.842-2.646,3.42
		c0.034,1.604,1.168,2.943,2.881,3.4C328.98,145.557,333.45,141.293,332.426,135.25z"/>
	<path fill-rule="evenodd" clip-rule="evenodd" fill="#733194" d="M257.734,52.103c-1.056,3.502-3.063,5.825-6.407,6.78
		c-2.627,0.75-5.317,0.743-7.904-0.182c-4.05-1.447-6.113-4.593-6.494-8.693c-0.217-2.341-0.094-4.829,0.47-7.104
		c1.264-5.095,5.419-7.734,10.463-7.511c5.345,0.237,9.03,3.703,9.76,8.822c0.118,0.828,0.209,1.665,0.229,2.5
		c0.04,1.588,0.015,1.594-1.533,1.595c-4.678,0.003-9.356-0.001-14.035,0.005c-0.511,0-1.022,0.049-1.518,0.073
		c-0.409,3.242,1.822,6.653,4.893,7.595c3.257,0.998,6.147-0.282,7.723-3.501c0.34-0.695,0.73-0.955,1.467-0.823
		C255.738,51.819,256.636,51.937,257.734,52.103z M253.745,45.118c0.193-3.707-2.68-6.668-6.342-6.609
		c-3.658,0.06-6.657,3.128-6.396,6.609C245.25,45.118,249.5,45.118,253.745,45.118z"/>
	<path fill-rule="evenodd" clip-rule="evenodd" fill="#733194" d="M183.101,115.055c7.185,0,14.24,0,21.388,0
		c0,1.123,0,2.215,0,3.426c-0.483,0.021-0.949,0.061-1.414,0.063c-4.837,0.004-9.674,0.037-14.511-0.023
		c-1.145-0.016-1.425,0.391-1.4,1.445c0.059,2.438,0.057,4.877,0,7.314c-0.023,0.98,0.279,1.318,1.285,1.307
		c4.077-0.047,8.155,0.02,12.231-0.041c1.171-0.018,1.726,0.264,1.55,1.525c-0.087,0.625-0.015,1.271-0.015,2.059
		c-4.973,0-9.866,0-14.883,0c-0.059,0.631-0.143,1.127-0.145,1.621c-0.011,3.799-0.044,7.596,0.016,11.393
		c0.019,1.168-0.271,1.633-1.53,1.598c-2.572-0.072-2.574-0.006-2.574-2.623c0-9.152,0-18.307,0-27.461
		C183.101,116.178,183.101,115.699,183.101,115.055z"/>
	<path fill-rule="evenodd" clip-rule="evenodd" fill="#733194" d="M211.42,27.214c1.314,0,2.455,0,3.728,0c0,3.695,0,7.316,0,11.285
		c0.529-0.434,0.813-0.659,1.089-0.894c2.869-2.424,6.1-2.774,9.546-1.577c2.798,0.972,4.126,3.158,4.194,5.972
		c0.128,5.315,0.054,10.637,0.085,15.955c0.003,0.681-0.283,0.881-0.926,0.924c-2.837,0.19-2.836,0.206-2.836-2.583
		c0-3.959,0.001-7.919,0-11.878c0-3.809-1.524-5.704-4.679-5.82c-3.334-0.122-6.076,2.238-6.223,5.641
		c-0.188,4.351-0.163,8.71-0.221,13.066c-0.02,1.561-0.007,1.571-1.592,1.564c-2.649-0.012-2.152,0.172-2.157-2.162
		c-0.021-9.318-0.009-18.637-0.009-27.955C211.42,28.279,211.42,27.806,211.42,27.214z"/>
	<path fill-rule="evenodd" clip-rule="evenodd" fill="#733194" d="M231.565,135.182c-0.145,1.307-0.18,2.637-0.454,3.914
		c-1.15,5.348-5.54,8.477-11.221,8.078c-5.557-0.391-9.214-4.086-9.731-9.668c-0.225-2.42-0.146-4.787,0.522-7.115
		c1.438-5.012,5.929-7.408,10.763-7.146C227.843,123.59,231.74,128.426,231.565,135.182z M227.718,134.986
		c-0.208-1.16-0.328-2.648-0.758-4.039c-0.891-2.881-3.433-4.648-6.306-4.588c-2.96,0.063-5.386,1.955-6.22,4.893
		c-0.688,2.43-0.73,4.896-0.163,7.344c0.813,3.506,3.31,5.498,6.71,5.473c3.081-0.023,5.498-2.143,6.256-5.564
		C227.469,137.459,227.534,136.377,227.718,134.986z"/>
	<path fill-rule="evenodd" clip-rule="evenodd" fill="#733194" d="M368.845,135.109c-0.068-3.023,0.449-5.891,2.447-8.299
		c2.654-3.199,7.437-4.422,11.832-3.057c3.808,1.182,6.7,4.746,6.928,8.908c0.124,2.252,0.118,4.582-0.315,6.783
		c-1.005,5.096-5.638,8.158-11.231,7.725c-5.6-0.432-9.389-4.406-9.656-10.143C368.82,136.391,368.845,135.748,368.845,135.109z
		 M386.596,135.238c-0.353-1.654-0.524-3.178-1.012-4.592c-0.913-2.646-3.348-4.281-6.044-4.289
		c-2.734-0.006-5.088,1.506-6.06,4.086c-1.212,3.217-1.265,6.506,0.075,9.688c1.022,2.428,2.912,3.832,5.643,3.941
		c2.939,0.115,5.058-1.229,6.162-3.857C386.027,138.633,386.213,136.85,386.596,135.238z"/>
	<path fill-rule="evenodd" clip-rule="evenodd" fill="#733194" d="M265.58,98.373c0.249-0.781,0.385-1.258,0.552-1.725
		c1.938-5.404,3.873-10.809,5.845-16.201c0.106-0.291,0.516-0.641,0.809-0.665c0.986-0.083,1.984-0.032,3.209-0.032
		c-0.632,1.711-1.195,3.268-1.78,4.816c-2.888,7.646-5.756,15.298-8.701,22.921c-0.407,1.053-1.092,2.053-1.838,2.914
		c-1.629,1.877-3.789,2.02-6.047,1.49c-0.26-0.061-0.581-0.428-0.636-0.701c-0.178-0.893-0.245-1.809-0.372-2.85
		c0.795,0.068,1.484,0.164,2.176,0.184c1.799,0.047,3.05-0.783,3.73-2.447c0.286-0.699,0.631-1.396,0.776-2.129
		c0.131-0.652,0.214-1.422-0.008-2.021c-2.585-6.992-5.233-13.961-7.863-20.936c-0.124-0.331-0.229-0.669-0.423-1.233
		c1.292,0,2.464-0.049,3.624,0.039c0.245,0.019,0.547,0.503,0.663,0.829c1.975,5.558,3.924,11.125,5.881,16.69
		C265.262,97.561,265.36,97.799,265.58,98.373z"/>
	<path fill-rule="evenodd" clip-rule="evenodd" fill="#733194" d="M218.861,79.888c3.078-0.469,3.099-0.453,3.384,2.361
		c0.015,0.147,0.088,0.288,0.165,0.53c0.206-0.187,0.367-0.294,0.479-0.438c2.538-3.271,7.541-3.768,11.04-2.105
		c2.269,1.078,3.411,2.99,3.477,5.335c0.151,5.431,0.065,10.869,0.096,16.304c0.004,0.678-0.28,0.881-0.924,0.924
		c-2.839,0.191-2.837,0.209-2.837-2.578c0-3.955,0.001-7.912-0.001-11.869c-0.002-3.766-1.524-5.63-4.719-5.785
		c-3.247-0.157-6.019,2.192-6.171,5.539c-0.2,4.387-0.221,8.785-0.2,13.178c0.006,1.248-0.378,1.572-1.562,1.531
		c-2.735-0.096-2.21,0.174-2.219-2.242C218.844,93.701,218.861,86.828,218.861,79.888z"/>
	<path fill-rule="evenodd" clip-rule="evenodd" fill="#733194" d="M264.648,123.729c1.184,0,2.167,0,3.307,0c0,0.98,0,1.91,0,2.84
		c0.134,0.078,0.267,0.156,0.4,0.234c0.211-0.324,0.376-0.693,0.639-0.969c2.86-3.021,8.312-3.52,11.664-1.074
		c2.055,1.498,2.56,3.727,2.597,6.043c0.081,4.998,0.016,10,0.041,14.998c0.003,0.697-0.274,0.877-0.912,0.918
		c-2.856,0.186-2.855,0.201-2.855-2.59c0-3.84,0.015-7.68-0.012-11.52c-0.006-0.875-0.084-1.762-0.25-2.619
		c-0.439-2.285-2.701-3.775-5.149-3.455c-3.736,0.486-5.608,2.543-5.681,6.459c-0.075,4.078-0.066,8.16-0.007,12.238
		c0.017,1.123-0.24,1.551-1.439,1.504c-2.781-0.105-2.325,0.227-2.334-2.398c-0.023-6.359-0.008-12.721-0.008-19.08
		C264.648,124.785,264.648,124.311,264.648,123.729z"/>
	<path fill-rule="evenodd" clip-rule="evenodd" fill="#733194" d="M180.722,30.706c0-1.231,0-2.293,0-3.486
		c0.4-0.028,0.783-0.08,1.165-0.08c7.472-0.005,14.945,0.023,22.417-0.032c1.184-0.009,1.399,0.441,1.374,1.467
		c-0.063,2.512,0.121,2.105-2.118,2.126c-2.278,0.022-4.558,0.064-6.833-0.019c-1.169-0.043-1.566,0.237-1.556,1.506
		c0.063,8.431,0.01,16.863,0.059,25.294c0.007,1.121-0.32,1.442-1.405,1.41c-3.117-0.093-2.691,0.337-2.698-2.668
		c-0.02-7.951-0.005-15.903-0.008-23.855c0-1.658-0.006-1.661-1.615-1.662C186.629,30.704,183.755,30.706,180.722,30.706z"/>
	<path fill-rule="evenodd" clip-rule="evenodd" fill="#733194" d="M238.083,123.723c1.246,0,2.388,0,3.681,0
		c0,0.469,0,0.895,0,1.318c0.006,4.396-0.006,8.793,0.021,13.188c0.023,3.756,1.565,5.67,4.596,5.783
		c3.415,0.127,6.149-2.238,6.277-5.703c0.158-4.311,0.108-8.629,0.142-12.943c0.013-1.695,0.006-1.717,1.673-1.691
		c2.22,0.035,2.067-0.465,2.07,2.129c0.008,6.514,0.012,13.029-0.021,19.543c-0.002,0.439-0.279,1.23-0.497,1.256
		c-0.887,0.1-1.852,0.115-2.673-0.172c-0.248-0.086-0.125-1.242-0.17-1.91c-0.017-0.236-0.026-0.473-0.039-0.709
		c-0.114-0.104-0.229-0.207-0.343-0.311c-0.188,0.318-0.334,0.676-0.572,0.953c-2.983,3.469-8.061,3.242-10.984,1.627
		c-2.063-1.139-3.063-3.029-3.115-5.209C237.993,135.203,238.083,129.531,238.083,123.723z"/>
	<path fill-rule="evenodd" clip-rule="evenodd" fill="#733194" d="M400.208,123.668c0,1.082,0,1.982,0,3.139
		c0.522-0.551,0.852-0.926,1.212-1.271c2.912-2.791,8.294-3.109,11.526-0.68c1.509,1.137,2.27,2.762,2.314,4.555
		c0.136,5.434,0.111,10.871,0.163,16.307c0.007,0.719-0.296,0.998-1.004,0.996c-3.277-0.006-2.701,0.227-2.735-2.496
		c-0.053-4.238-0.011-8.477-0.12-12.711c-0.08-3.148-1.557-4.699-4.49-5.008c-2.75-0.289-5.574,1.633-6.139,4.285
		c-0.247,1.162-0.359,2.371-0.375,3.559c-0.047,3.639-0.045,7.279,0.001,10.918c0.013,1.047-0.251,1.512-1.403,1.475
		c-2.648-0.086-2.351,0.184-2.354-2.299c-0.012-6.359-0.003-12.717-0.001-19.074c0-1.691,0.003-1.691,1.676-1.693
		C398.992,123.668,399.504,123.668,400.208,123.668z"/>
	<path fill-rule="evenodd" clip-rule="evenodd" fill="#733194" d="M345.048,126.668c-1.026,0-1.854,0-2.78,0c0-1.027,0-1.953,0-3
		c0.613,0,1.168-0.045,1.713,0.01c0.871,0.092,1.142-0.301,1.074-1.109c-0.044-0.516-0.008-1.039-0.008-1.559
		c0-3.436,0.237-3.771,3.728-5.172c0,2.576,0,5.109,0,7.793c1.324,0,2.537,0,3.835,0c0,1.047,0,1.945,0,2.996
		c-1.229,0-2.443,0-3.807,0c0,0.572,0,0.998,0,1.426c0,3.959,0,7.92,0,11.879c0,3.336,0.468,3.777,3.939,3.508
		c0.156,1.053,0.314,2.119,0.499,3.355c-1.845,0-3.521,0.188-5.137-0.047c-1.919-0.279-2.978-1.879-3.003-4.189
		c-0.054-4.719-0.04-9.439-0.054-14.158C345.046,127.887,345.048,127.375,345.048,126.668z"/>
	<path fill-rule="evenodd" clip-rule="evenodd" fill="#733194" d="M333.861,71.767c0,2.878,0,5.346,0,7.942c1.319,0,2.535,0,3.834,0
		c0,1.028,0,1.928,0,2.968c-1.191,0-2.408,0-3.749,0c-0.047,0.623-0.115,1.12-0.116,1.618c-0.01,3.916-0.009,7.83-0.004,11.746
		c0.004,3.313,0.509,3.773,3.935,3.461c0.177,1.061,0.354,2.133,0.571,3.436c-1.707,0-3.261,0.17-4.761-0.039
		c-2.192-0.309-3.314-1.635-3.357-3.83c-0.094-4.832-0.095-9.664-0.133-14.498c-0.005-0.553-0.001-1.105-0.001-1.729
		c-1.28-0.311-3.274,0.633-2.919-1.998c0.294-2.178,2.01-0.467,2.92-1.471c0-1.222,0.043-2.693-0.017-4.162
		c-0.035-0.861,0.223-1.425,1.014-1.82C331.95,72.955,332.768,72.412,333.861,71.767z"/>
	<path fill-rule="evenodd" clip-rule="evenodd" fill="#733194" d="M249.204,71.145c0,0.473,0,0.863,0,1.253
		c0,9.67-0.021,19.34,0.027,29.008c0.006,1.131-0.334,1.438-1.412,1.404c-2.817-0.084-2.357,0.232-2.363-2.359
		c-0.02-9.23-0.008-18.46-0.008-27.69c0-0.51,0-1.021,0-1.616C246.726,71.145,247.866,71.145,249.204,71.145z"/>
	<path fill-rule="evenodd" clip-rule="evenodd" fill="#733194" d="M312.701,79.952c0.175-0.117,0.207-0.156,0.239-0.156
		c0.917-0.007,2.078-0.344,2.677,0.092c0.495,0.36,0.323,1.634,0.457,2.501c0.021,0.143,0.092,0.278,0.208,0.617
		c1.152-1.852,2.279-3.569,4.55-3.69c1.501-0.08,2.904,0.351,4.256,1.215c-0.446,1.152-0.873,2.255-1.286,3.32
		c-0.12,0.016-0.168,0.039-0.197,0.023c-3.345-1.715-6.573-0.265-6.896,4.367c-0.299,4.295-0.19,8.621-0.249,12.934
		c-0.022,1.613-0.007,1.623-1.661,1.615c-2.572-0.012-2.082,0.146-2.09-2.107c-0.022-6.477-0.008-12.953-0.008-19.428
		C312.701,80.816,312.701,80.378,312.701,79.952z"/>
	<path fill-rule="evenodd" clip-rule="evenodd" fill="#733194" d="M358.524,123.727c1.306,0,2.447,0,3.663,0
		c0.026,0.398,0.07,0.746,0.07,1.096c0.004,6.877-0.018,13.754,0.025,20.629c0.006,1.023-0.332,1.301-1.303,1.277
		c-3.007-0.076-2.434,0.248-2.446-2.377c-0.031-6.357-0.01-12.715-0.01-19.072C358.524,124.805,358.524,124.328,358.524,123.727z"/> -->
	<!-- <path fill-rule="evenodd" clip-rule="evenodd" fill="#733194" d="M358.6,115.055c1.195,0,2.329,0,3.562,0c0,1.34,0,2.666,0,4.084
		c-1.157,0-2.32,0-3.562,0C358.6,117.783,358.6,116.459,358.6,115.055z"/> -->
	<linearGradient id="SVGID_2_" gradientUnits="userSpaceOnUse" x1="35.9712" y1="86.0313" x2="147.6528" y2="86.0313">
		<stop  offset="0" style="stop-color:#EC008C"/>
		<stop  offset="0.2078" style="stop-color:#C40B87"/>
		<stop  offset="0.4489" style="stop-color:#9C1582"/>
		<stop  offset="0.6697" style="stop-color:#7F1D7F"/>
		<stop  offset="0.8606" style="stop-color:#6D217D"/>
		<stop  offset="1" style="stop-color:#67237C"/>
	</linearGradient>
	<path fill-rule="evenodd" clip-rule="evenodd" fill="url(#SVGID_2_)" d="M56.396,55.197c-0.579-0.243-1.247-0.363-1.681-0.749
		c-0.512-0.454-0.87-1.114-1.168-1.745c-0.051-0.108,0.516-0.732,0.815-0.746c1.755-0.083,3.518-0.101,5.273-0.035
		c0.451,0.017,0.887,0.411,1.491,0.713c-0.515-1.446-0.961-2.701-1.429-4.015c1.011-0.866,1.318,0.876,2.375,0.508
		c-0.029-0.392-0.041-0.867-0.105-1.335c-0.091-0.664-0.25-1.32-0.316-1.986c-0.018-0.184,0.149-0.487,0.31-0.557
		c0.161-0.069,0.506,0.015,0.617,0.153c0.43,0.54,0.714,1.224,1.213,1.677c0.66,0.6,1.471,1.032,2.472,1.71
		c0.235,0.983,0.354,1.042,1.747,0.497c1.24,0.762,1.149,2.186,1.696,3.294c0.436,0.885,1.258,1.578,2.128,2.203
		c0.033-3.008-2.44-4.811-3.266-7.41c0.116-0.014,0.347-0.103,0.402-0.038c0.813,0.938,1.763,1.811,2.342,2.882
		c0.433,0.799,0.878,0.85,1.505,0.599c0.641-0.258,1.084-1.949,0.793-2.602c-0.134-0.301-0.304-0.684-0.227-0.966
		c0.351-1.269,0.381-1.26-0.426-2.569c0.985-0.1,1.372-0.432,1.003-1.545c-0.188-0.569,0.215-1.438,0.558-2.056
		c0.493-0.891,0.667-1.637,0.535-2.744c-0.158-1.333,0.373-2.819,0.881-4.133c0.278-0.719,1.724-0.626,2.219,0.014
		c0.335,0.434,0.652,0.909,0.849,1.416c0.499,1.285,0.906,2.605,1.393,3.895c0.129,0.342,0.412,0.624,0.625,0.934
		c0.282-0.224,0.6-0.414,0.837-0.678c0.497-0.553,0.917-1.178,1.438-1.704c0.237-0.239,0.64-0.314,0.968-0.465
		c0.13,0.304,0.351,0.599,0.375,0.91c0.128,1.609,0.459,2.378,1.899,3.526c-0.198-0.463-0.442-0.914-0.582-1.395
		c-0.159-0.549-0.407-1.165-0.292-1.68c0.22-0.981,1.415-1.289,2.144-0.503c1.352,1.457,2.928,2.811,3.217,4.973
		c0.015,0.114,0.089,0.222,0.179,0.434c0.746-1.376,1.383-2.551,2.22-4.096c0.191,0.671,0.31,1.107,0.441,1.541
		c0.104,0.346,0.224,0.687,0.337,1.03c0.354-0.197,0.771-0.331,1.05-0.604c0.742-0.728,1.425-1.515,2.131-2.277
		c0.154,0.077,0.307,0.154,0.461,0.231c-0.176,0.886-0.385,1.767-0.518,2.659c-0.104,0.696-0.133,1.406-0.155,2.11
		c-0.007,0.226,0.245,0.534,0.16,0.669c-0.683,1.097,0.153,1.528,1.025,2.064c-0.46,0.734-0.912,1.394-1.283,2.096
		c-0.079,0.149,0.157,0.661,0.22,0.656c0.348-0.028,0.866-0.059,0.997-0.282c0.537-0.908,0.958-1.886,1.413-2.841
		c0.392-0.823,1.217-1.114,2.021-0.7c0.065-0.039,0.173-0.068,0.188-0.123c0.457-1.653,1.853-2.189,3.236-2.752
		c0.244-0.1,0.633-0.273,0.648-0.44c0.15-1.656,2.032-1.748,2.637-2.987c0.386-0.793,1.264-0.872,1.851-0.602
		c0.404,0.187,0.663,1.001,0.722,1.563c0.196,1.858-0.543,3.546-1.141,5.253c-0.145,0.414-0.175,0.868-0.316,1.606
		c1.181-0.331,2.057-0.607,2.95-0.813c0.498-0.115,1.023-0.113,1.537-0.164c-0.163,0.655-0.111,1.562-0.528,1.918
		c-1.083,0.925-0.343,2.118-1.006,3.034c0.165,0.054,0.33,0.108,0.494,0.162c0.138-0.392,0.254-0.793,0.418-1.175
		c0.229-0.532,0.36-1.214,0.768-1.542c0.92-0.741,1.839-0.415,2.077,0.771c0.382,1.908,0.415,3.836-0.447,5.672
		c-0.106,0.226-0.13,0.491-0.16,0.609c0.964-0.292,1.918-0.524,2.822-0.882c0.406-0.161,0.713-0.572,1.118-0.915
		c0.577,0.377,0.553,0.489-0.77,2.516c1.46,0.873,2.997-0.791,4.676,0.124c-0.894,0.736-1.667,1.273-2.312,1.937
		c-0.472,0.485-0.948,1.097-1.09,1.727c-0.094,0.415,0.399,0.964,0.75,1.708c0.007-0.027-0.076,0.285-0.209,0.786
		c0.719-0.511,1.219-1.11,1.82-1.238c1.108-0.238,2.276-0.207,3.42-0.263c0.122-0.006,0.252,0.156,0.721,0.467
		c-1.692,0.103-3.039,0.184-4.385,0.266c-0.021,0.083-0.043,0.167-0.065,0.251c0.354,0.089,0.702,0.231,1.06,0.259
		c1.647,0.127,3.298,0.217,4.946,0.334c0.188,0.014,0.507,0.092,0.533,0.196c0.258,1.062,1.07,0.712,1.743,0.728
		c0.23,0.005,0.46,0.039,0.689,0.06c0.003,0.102,0.006,0.203,0.009,0.306c-3.178,0-6.357,0-9.535,0
		c-0.053,0.153-0.105,0.308-0.158,0.462c0.281,0.123,0.556,0.334,0.843,0.354c0.722,0.048,1.449,0.007,2.174,0.006
		c2.081-0.001,4.162,0,6.206,0.191c0.525,0.151,1.068,0.259,1.572,0.464c0.997,0.405,1.96,0.892,2.96,1.287
		c0.417,0.165,0.974,0.383,1.326,0.236c1.644-0.684,3.149,0.008,4.609,0.477c0.973,0.313,1.002,1.69,0.134,2.364
		c-0.544,0.423-1.296,0.572-1.857,0.979c-0.54,0.392-0.954,0.956-1.344,1.362c1.121,1.354,2.17,2.598,3.195,3.862
		c0.979,1.209,0.816,2.882-0.348,3.867c-1.373,1.161-1.373,1.161-3.336,1.069c0,0.63,0.164,1.318-0.033,1.88
		c-0.451,1.283-1.167,1.336-2.01,0.254c-0.401-0.514-0.7-1.195-1.574-0.958c0.455,2.868,1.833,3.836,4.115,3.051
		c1.915-0.658,3.896-1.13,5.863-1.625c0.333-0.084,0.737,0.152,1.113,0.198c0.348,0.042,0.702,0.028,1.053,0.04
		c0.291,0.01,0.582,0.021,0.872,0.031c-0.021,0.37,0.011,0.754-0.081,1.105c-0.089,0.342-0.331,0.641-0.461,0.976
		c-0.273,0.707-0.372,1.531-0.805,2.113c-0.691,0.928-0.863,1.697-0.056,2.615c0.465,0.529,0.837,1.141,1.335,1.832
		c-0.503,0.068-0.901,0.123-1.3,0.176c-0.113,0.137-0.226,0.271-0.339,0.408c0.799,0.414,1.598,0.828,2.397,1.24
		c-0.154,0.154-0.308,0.309-0.461,0.463c-1.729,0.01-2.754-1.018-3.4-2.729c-0.544-1.443-2.005-2.043-3.404-2.557
		c-0.994-0.363-2.115-0.451-2.654-1.672c-0.162-0.367-0.967-0.449-1.478-0.662c-0.059,0.088-0.117,0.178-0.175,0.268
		c0.743,1.934,1.673,3.82,2.175,5.814c0.498,1.979,0.565,4.066,0.8,5.938c-0.998,0.41-1.924,0.791-2.852,1.172
		c-0.069-0.113-0.139-0.227-0.208-0.342c0.334-0.467,0.668-0.936,1.092-1.531c-0.753-0.051-1.313-0.088-2.144-0.145
		c0.199,1.119,0.155,2.316,0.657,3.203c0.343,0.609,1.638,0.615,2.162,1.199c0.828,0.922,2.327,1.594,1.875,3.234
		c-0.116,0.424-0.57,1.029-0.912,1.059c-0.791,0.07-1.607-0.227-2.417-0.248c-0.651-0.016-1.307,0.154-1.901,0.234
		c0,1.619,0.103,3.162-0.023,4.688c-0.206,2.486-2.309,3.893-4.67,3.135c-0.467-0.15-0.773-0.799-1.234-1.309
		c-0.085,0.219-0.155,0.383-0.211,0.549c-0.313,0.93-1.044,1.266-1.93,1.234c-1.086-0.037-0.542-0.93-0.689-1.463
		c-0.151-0.547-0.334-1.084-0.504-1.625c-0.148,0.002-0.296,0.004-0.445,0.008c-0.175,0.965-0.498,1.934-0.469,2.893
		c0.017,0.566,0.459,1.408,0.936,1.623c1.859,0.836,3.815,1.457,5.72,2.195c0.506,0.197,1.186,0.422,1.385,0.83
		c0.403,0.824,0.778,1.469,1.812,1.205c0.025,1.463-0.292,1.736-1.466,1.393c-0.718,0.943-1.287,2.07-2.868,1.791
		c-0.241-0.043-0.847,0.945-0.971,1.523c-0.171,0.795-0.043,1.654-0.043,2.506c-0.596-0.234-1.107-0.434-1.713-0.672
		c-0.021,1.178,1.286,1.947,0.147,2.998c-0.486-1.547-1.179-0.096-1.947-0.1c0.895-1.02,1.503-2.008,0.906-3.299
		c-0.072-0.156-0.054-0.43,0.038-0.576c1.001-1.598,0.103-2.918-0.677-4.184c-0.645-1.047-1.411-1.971-1.249-3.336
		c0.043-0.361-0.384-0.779-0.781-1.516c-0.49,1.379-0.983,2.414-1.222,3.504c-0.582,2.65-1.413,5.205-3.647,6.877
		c-0.729,0.545-2.01,0.379-3.045,0.459c-0.125,0.01-0.348-0.461-0.4-0.734c-0.016-0.084,0.374-0.316,0.601-0.359
		c0.407-0.074,0.831-0.057,1.248-0.078c0.055-0.121,0.11-0.242,0.166-0.363c-0.625-0.469-1.24-0.949-1.879-1.398
		c-0.261-0.184-0.908-0.074-0.435-0.727c0.046-0.064-0.25-0.457-0.458-0.586c-0.077-0.047-0.493,0.203-0.514,0.352
		c-0.105,0.77-0.69,0.734-1.22,0.814c-0.896,0.137-1.79,0.299-2.69,0.402c-1.063,0.123-1.72-0.486-2.075-1.387
		c-0.288-0.729-0.45-1.451-1.505-1.287c-0.193,0.029-0.468-0.307-0.666-0.512c-0.53-0.549-1.039-1.119-1.757-1.896
		c-0.11,0.963-0.181,1.578-0.251,2.191c-0.148-0.006-0.296-0.01-0.444-0.016c0-1.195,0-2.393,0-3.59
		c-0.156,0.008-0.312,0.014-0.467,0.021c0,0.311,0.028,0.625-0.004,0.934c-0.148,1.414-0.302,2.828-0.484,4.238
		c-0.021,0.158-0.208,0.363-0.363,0.42c-0.678,0.248-0.693,0.695-0.625,1.334c0.058,0.541-0.175,1.111-0.28,1.67
		c-0.122-0.01-0.244-0.018-0.366-0.027c0.057-0.824,0.099-1.65,0.177-2.473c0.041-0.43,0.276-0.879,0.195-1.273
		c-0.355-1.729,0.034-3.432,0.039-5.145c0.001-0.426-0.277-0.852-0.427-1.277c-0.113,0.035-0.226,0.07-0.339,0.105
		c0,2.133,0,4.268,0,6.67c-0.459,0.395-0.86,1.078-0.29,2.051c0.098,0.166-0.331,0.641-0.641,1.197
		c0.787,1.385-0.159,2.51-1.212,3.67c-0.269,0.295-0.229,0.912-0.25,1.385c-0.034,0.773,0.012,1.551-0.002,2.328
		c-0.007,0.395-0.124,0.791-0.099,1.182c0.056,0.896-0.42,1.422-1.218,1.467c-0.71,0.039-1.477,0.031-1.879-0.9
		c-0.342-0.793-0.884-1.529-1.457-2.186c-0.443-0.506-0.977-0.359-1.412,0.186c-1.273,1.59-3.037,2.441-4.906,3.066
		c-0.404,0.135-1.068,0.014-1.395-0.256c-0.699-0.574-1.389-1.248-1.821-2.025c-0.266-0.48-0.049-1.229-0.049-1.813
		c-0.48,0-1.049,0.135-1.516-0.025c-1.362-0.469-1.493-1.473-0.334-2.35c0.406-0.307,0.913-0.48,1.375-0.715
		c-0.172-0.234-0.345-0.471-0.517-0.705c-0.5,0.127-1.012,0.221-1.499,0.389c-1.798,0.615-2.336,1.793-1.788,3.615
		c0.293,0.975,0.434,1.998,0.661,3.084c-1.199-0.992-2.311-1.91-3.382-2.795c0.287-0.613,0.571-1.221,1.008-2.156
		c-1.44,0.426-2.542,0.611-3.521,1.064c-2.509,1.162-5.031,2.17-7.869,1.67c-0.395-0.068-0.806-0.377-1.088-0.686
		c-0.579-0.633-1.075-1.342-1.583-1.99c-0.592,0.428-1.063,0.861-1.612,1.143c-0.998,0.514-2.178-0.334-2.147-1.439
		c0.024-0.877-0.062-1.758-0.069-2.639c-0.003-0.309,0.081-0.619,0.155-1.135c-0.913,0-1.861-0.207-2.67,0.043
		c-1.535,0.475-2.823-0.232-4.146-0.637c-0.63-0.193-1.243-0.836-1.11-1.768c0.159-1.113-0.526-2.436,0.674-3.08
		c-0.367-1.004-0.701-1.918-1.036-2.83c0.934-0.322,1.868-0.645,2.931-1.012c-0.171-0.186-0.324-0.477-0.561-0.582
		c-2.012-0.9-3.659-0.193-4.478,1.896c-0.561,1.428-1.118,2.857-1.675,4.287c-0.395,1.014-0.828,1.986-2.239,1.947
		c0.07,0.467,0.126,0.84,0.187,1.246c-0.833,0.248-1.311-0.041-1.46-0.887c-0.007-0.039,0.007-0.098-0.016-0.117
		c-1.163-0.994-1.327-2.619-2.207-3.678c-0.579-0.693-2.032-0.662-3.123-0.963c0.055-0.686-0.071-1.252-1.154-0.846
		c-0.423,0.158-0.921,0.119-1.496,0.182c0.154-0.604,0.272-1.066,0.369-1.447c0.979,0,1.943,0,2.906,0
		c0.178,0.002,0.419-0.061,0.524,0.029c1.431,1.25,2.668,0.273,3.917-0.34c0.99-0.484,1.915-1.117,2.931-1.533
		c0.563-0.229,1.255-0.146,1.913-0.434c-0.987-1.023-2.168-1.5-3.43-1.656c-2.522-0.316-4.651-1.324-6.453-3.131
		c-1.019-1.02-0.648-2.223-0.672-3.383c-0.003-0.146,0.296-0.301,0.455-0.451c0.136,0.164,0.315,0.309,0.399,0.498
		c0.208,0.461,0.373,0.941,0.555,1.416c0.435-0.42,0.933-0.793,1.291-1.27c0.782-1.043,0.59-2.152,0.399-3.398
		c-0.193-1.264-1.066-2.805,0.458-3.934c0.212-0.158,0.43-0.361,0.674-0.414c1.014-0.223,1.524-0.744,1.249-1.6
		c1.77-1.543,3.471-2.973,5.104-4.477c0.799-0.736,1.47-1.609,2.201-2.42c0.052-0.059,0.162-0.088,0.18-0.15
		c0.19-0.633,0.368-1.268,0.548-1.902c-0.631-0.041-1.263-0.082-1.895-0.125c-0.01,0.166-0.02,0.332-0.03,0.496
		c-0.974-1.25-1.893-0.643-2.812-0.002c0.01-0.135,0.021-0.27,0.031-0.404c-0.796-0.121-1.602-0.199-2.383-0.381
		c-0.485-0.113-0.951-0.352-1.394-0.592c-0.896-0.486-1.657-0.813-2.855-0.596c-1.284,0.23-2.764-0.344-4.094-0.77
		c-0.697-0.221-0.675-1.902,0.072-2.279c1.6-0.803,3.292-1.421,4.94-2.132c0.495-0.214,0.965-0.481,1.454-0.728
		c-0.974-1.467-3.09-1.597-3.188-3.696c1.668-0.016,3.279,0.167,4.483-1.608c-0.86,0.323-1.51,0.504-2.1,0.804
		c-0.967,0.492-1.218-0.499-1.745-0.847c-0.126-0.083,0.022-0.901,0.271-1.183c1.314-1.491,2.778-2.793,4.852-3.138
		c0.167-0.028,0.394-0.186,0.438-0.33c0.043-0.14-0.065-0.436-0.191-0.5c-1.082-0.561-2.183-1.085-3.277-1.62
		c-0.018-0.142-0.036-0.284-0.055-0.426c0.725-0.183,1.45-0.366,2.432-0.613c-0.688-0.702-1.308-1.341-1.936-1.974
		c-0.14-0.141-0.362-0.23-0.443-0.395c-0.127-0.258-0.168-0.559-0.246-0.841c0.26-0.055,0.542-0.201,0.776-0.147
		c0.728,0.167,1.431,0.437,2.158,0.609c0.249,0.06,0.537-0.07,0.807-0.078c0.786-0.021,1.634,0.159,2.341-0.081
		c0.792-0.27,1.458-0.913,2.432-1.563c-0.867-0.445-1.443-0.742-2.032-1.045c0.43-1.437-0.481-3.082-1.775-3.873
		c-1.034-0.632-1.977-1.577-2.651-2.589c-0.688-1.034,0.289-2.416,1.517-2.208c1.508,0.256,2.979,0.743,4.458,1.159
		c0.458,0.128,0.882,0.45,1.337,0.484c0.249,0.02,0.783-0.427,0.753-0.579c-0.185-0.954-0.524-1.876-0.742-2.825
		c-0.077-0.333-0.083-0.866,0.111-1.026c0.2-0.165,0.748-0.102,1.031,0.06c0.989,0.562,1.74,1.657,3.115,1.284
		c0.114-0.031,0.24-0.025,0.352-0.063C56.281,55.373,56.315,55.292,56.396,55.197z"/>
	<g>
		<path fill="#FFFFFF" d="M112.402,117.65c-0.583-1.248-1.196-2.482-1.796-3.723c-3.638-7.527-7.244-15.07-10.948-22.564
			c-0.568-1.15-0.284-1.631,0.629-2.299c5.321-3.879,7.786-9.29,8.007-15.736c0.087-2.534-0.464-5.071-1.508-7.4
			c-3.294-7.349-9.002-11.363-17.663-12.184c-1.286,0.169-3.194,0.292-5.044,0.69c-4.293,0.923-7.815,3.218-10.558,6.606
			c-4.175,5.158-5.322,11.093-3.703,17.433c1.129,4.42,3.595,8.115,7.475,10.715c0.758,0.51,0.88,1.105,0.48,1.916
			c-1.381,2.801-2.715,5.627-4.1,8.428c-2.755,5.57-5.597,11.098-8.273,16.707c-1.26,2.641-1.666,2.006,1.072,3.859
			c0.961,0.65,1.384,0.379,1.824-0.508c1.863-3.756,3.755-7.498,5.624-11.25c2.578-5.176,5.143-10.357,7.716-15.535
			c0.335-0.674,0.745-0.939,1.598-0.689c3.603,1.057,7.247,1.045,10.856,0.033c0.905-0.254,1.28-0.014,1.66,0.775
			c1.889,3.93,3.812,7.844,5.755,11.748c2.292,4.604,4.623,9.188,6.927,13.783c1.044,2.084,1.033,2.09,3.132,1.057
			c0.107-0.053,0.215-0.104,0.319-0.16C112.605,118.953,112.729,118.352,112.402,117.65z M87.072,89.436
			c-0.886,0.012-1.787-0.279-2.654-0.529c-0.177-0.051-0.403-0.615-0.313-0.801c1.444-2.986,2.936-5.948,4.416-8.917
			c0.123-0.013,0.245-0.025,0.368-0.037c1.53,3.19,3.324,6.258,4.75,9.924C91.159,89.223,89.117,89.412,87.072,89.436z
			 M88.923,69.18c-0.152,0.03-0.305,0.061-0.458,0.092c-1.113,2.264-2.229,4.526-3.34,6.793c-1.585,3.237-3.176,6.472-4.743,9.718
			c-0.386,0.799-0.723,0.949-1.501,0.331c-2.932-2.327-4.912-5.323-5.848-8.874c-0.709-2.693-0.637-5.469,0.203-8.236
			c1.038-3.419,2.898-6.194,5.672-8.39c2.235-1.769,4.806-2.889,7.605-3.2c5.903-0.657,10.876,1.256,14.736,5.853
			c2.519,2.999,3.587,6.528,3.522,10.373c-0.093,5.542-2.561,9.87-7.234,13.236C94.647,80.937,91.785,75.059,88.923,69.18z"/>
	</g>
</g>
</svg>