<svg xmlns="http://www.w3.org/2000/svg" version="1.0" viewBox="140 40 320 200" preserveAspectRatio="xMidYMid meet">
    <g transform="translate(0.000000,600.000000) scale(0.19,-0.19)" fill="#000000" stroke="none">
    <path fill="#7030A0" d="M1205 3003 c-68 -23 -155 -110 -178 -177 -37 -108 -14 -215 64 -300 27 -30 49 -56 49 -59 0 -3 -45 -98 -100 -213 -56 -114 -98 -214 -96 -221 3 -7 14 -13 24 -13 14 0 42 50 122 215 101 209 104 214 129 208 33 -9 128 -9 162 0 25 6 29 1 133 -213 98 -202 109 -219 127 -210 10 6 19 16 19 22 0 6 -46 105 -102 220 l-102 209 47 47 c178 181 64 483 -188 498 -39 3 -77 -2 -110 -13z m160 -44 c56 -14 131 -79 156 -134 23 -50 25 -142 3 -193 -16 -40 -71 -102 -88 -101 -6 0 -38 56 -70 125 -33 68 -63 124 -66 124 -4 0 -33 -56 -66 -125 -32 -69 -63 -125 -69 -125 -19 0 -63 52 -84 100 -42 93 -23 189 53 265 69 69 136 88 231 64z m12 -465 c-11 -11 -105 -15 -130 -5 l-27 11 41 82 42 83 39 -83 c22 -46 38 -86 35 -88z"/>
    </g>
</svg>